<?xml version="1.0" encoding="utf-8"?>
<!-- Generator: Adobe Illustrator 16.0.0, SVG Export Plug-In . SVG Version: 6.00 Build 0)  -->
<!DOCTYPE svg PUBLIC "-//W3C//DTD SVG 1.1//EN" "http://www.w3.org/Graphics/SVG/1.1/DTD/svg11.dtd">
<svg version="1.1" id="Layer_1" xmlns="http://www.w3.org/2000/svg" xmlns:xlink="http://www.w3.org/1999/xlink" x="0px" y="0px"
	 width="1195px" height="521px" viewBox="0 0 1195 521" enable-background="new 0 0 1195 521" xml:space="preserve">
<path fill="#208FD3" d="M598.762,521.111h588.106v-28.736h-2.09l-2.034-2.035l-2.895-2.893c0,0,0.291-1.645-1.643-1.645
	c-1.935,0-3.67-3.668-3.67-3.668v-7.707h2.78v-2.78h0.885v-2.905h-3.917v-110.18l1.391-3.285v-5.181h1.895v-1.769h-3.158v-14.91
	h3.158v-1.137h1.896v-1.896l2.021-2.02l0.379-2.402h5.938v-1.01l2.527-1.517v-3.159h3.411v-1.263l1.644-1.644h-21.102v-1.769v-8.718
	h3.854v-1.832l1.453-1.453h-11.498l1.01-1.422H989.559l-4.801,2.559l-8.34,4.801l-19.205-2.273v-5.813h1.516v-1.011l-8.086-3.538
	l-3.513,1.137v-1.793l-1.365-1.365v-39.097l0.537-0.537v-1.745h-0.94v-2.45h1.712l1.645-1.644v-1.813h-2.752v-1.611h1.51v-4.127
	l1.712-1.711v-1.276h-2.45v-11.576l2.518-2.517v-1.409h3.858v-2.316l1.511-1.51v-3.624h7.718v-4.093h2.482v-4.161h4.832v-2.819
	h-24.779v-4.682l-1.358-1.358v-29.929v-6.728h1.021v-1.409h3.263v-3.873h1.683v-2.894h-4.793v-9.272l-2.346-1.799h-7.853
	c0,0-3.059-1.213-3.059-3.56v-3.834h0.867v-2.425h4.487v-3.521c0,0-0.185-0.52,1.478-1.8v-1.369c0,0-4.412-10.327-14.786-10.327
	v-2.387c0,0,0.51-0.9,1.173-0.9s2.243-1.76,0-3.481c-2.244-1.721-2.244-1.017-2.244-1.017l-1.086-57.858l0.017,57.975
	c0,0,1.069-0.821-1.173,0.9c-2.243,1.721-0.663,3.481,0,3.481s1.173,0.9,1.173,0.9v2.387c-10.374,0-14.787,10.327-14.787,10.327
	v1.369c1.662,1.28,1.479,1.8,1.479,1.8v3.521h4.487v2.425h0.867v3.834c0,2.347-3.061,3.56-3.061,3.56h-7.852l-2.345,1.799v9.272
	h-4.793v2.894h1.683v3.873h3.263v1.409h1.021v6.728h-75.15v-1.369h-1.532v-5.672h1.995v-1.493l-7.106-3.319l-6.676,3.351v1.461
	h2.189v5.842h-1.251v1.199h-48.196v-2.712v-1.617h-7.563l-1.617,1.617v-5.32h0.835v-1.826h3.703c0-2.608,2.608-4.799,2.608-4.799
	v-2.942h-6.418h-3.444c0,0-0.479-0.571-1.722-0.571v-1.714l-0.575-0.571h-4.019l-0.574-0.571c0,0-0.573-0.286-0.573-1.142h1.147
	v-1.143c0,0,8.102,0.483,10.333-3.998c0,0,6.143-0.988,6.315-3.998c0.174-3.009-0.854-3.171-1.723-2.284
	c-0.866,0.886-0.271,1.466,0.574,1.713c0.846,0.247-0.561,3.163-4.018,3.427c0,0-1.126,0.21-1.149,0
	c-0.021-0.21,0.136-2.342-1.722-2.856c0,0-0.429-0.949,0-1.142c0.43-0.193,3.968-0.153,1.722-3.427
	c-2.245-3.274-8.986-4.569-13.777-4.569h-0.252c-4.79,0-11.533,1.128-13.778,4.419s1.293,3.25,1.722,3.444
	c0.431,0.194,0,1.148,0,1.148c-1.855,0.517-1.7,2.66-1.722,2.871c-0.022,0.211-1.148,0-1.148,0
	c-3.457-0.265-4.863-3.196-4.019-3.445c0.845-0.248,1.442-0.831,0.574-1.722c-0.867-0.891-1.896-0.729-1.723,2.296
	s6.315,4.019,6.315,4.019c2.232,4.503,10.334,4.019,10.334,4.019v1.148h1.147c0,0.861-0.573,1.148-0.573,1.148l-0.574,0.574h-4.02
	l-0.573,0.574v1.722c-1.244,0-1.723,0.574-1.723,0.574h-3.444l-12.98,0.029h-13.729h-3.445c0,0-0.479-0.571-1.722-0.571v-1.714
	l-0.574-0.571h-4.019l-0.574-0.571c0,0-0.574-0.286-0.574-1.142h1.148v-1.143c0,0,8.102,0.482,10.333-3.998
	c0,0,6.143-0.988,6.315-3.998c0.173-3.009-0.855-3.171-1.722-2.284c-0.868,0.886-0.271,1.466,0.573,1.713
	c0.846,0.247-0.562,3.163-4.019,3.427c0,0-1.126,0.21-1.148,0c-0.021-0.21,0.136-2.342-1.722-2.856c0,0-0.43-0.949,0-1.142
	s3.967-0.153,1.722-3.427c-2.244-3.274-8.986-4.569-13.777-4.569h-0.252c-4.791,0-11.533,1.127-13.778,4.418
	c-2.245,3.292,1.292,3.251,1.722,3.445c0.431,0.194,0,1.148,0,1.148c-1.856,0.516-1.699,2.66-1.722,2.871
	c-0.021,0.211-1.148,0-1.148,0c-3.457-0.266-4.863-3.197-4.019-3.445s1.442-0.831,0.574-1.722c-0.867-0.891-1.896-0.729-1.722,2.296
	c0.173,3.025,6.314,4.019,6.314,4.019c2.232,4.503,10.333,4.018,10.333,4.018v1.149h1.149c0,0.861-0.574,1.148-0.574,1.148
	l-0.575,0.574h-4.018l-0.574,0.574v1.722c-1.244,0-1.724,0.574-1.724,0.574h-13.459c-25.227-49.445-68.316-45.353-68.316-45.353
	V0.558l-1.523,105.282c0,0-43.09-4.092-68.317,45.353h-13.46c0,0-0.478-0.574-1.722-0.574v-1.722l-0.574-0.574h-4.019l-0.574-0.574
	c0,0-0.574-0.287-0.574-1.148h1.148v-1.149c0,0,8.101,0.485,10.334-4.018c0,0,6.142-0.994,6.315-4.019
	c0.173-3.025-0.855-3.187-1.722-2.296c-0.868,0.891-0.271,1.474,0.574,1.722c0.845,0.248-0.562,3.179-4.019,3.445
	c0,0-1.126,0.211-1.148,0s0.135-2.355-1.722-2.871c0,0-0.43-0.954,0-1.148c0.43-0.194,3.967-0.153,1.722-3.445
	c-2.245-3.291-8.987-4.418-13.778-4.418h-0.252c-4.791,0-11.533,1.295-13.778,4.569c-2.246,3.274,1.292,3.234,1.722,3.427
	c0.43,0.193,0,1.142,0,1.142c-1.857,0.514-1.7,2.646-1.722,2.856c-0.023,0.21-1.148,0-1.148,0c-3.457-0.264-4.864-3.18-4.019-3.427
	c0.845-0.247,1.441-0.827,0.574-1.713c-0.868-0.887-1.895-0.725-1.722,2.284c0.173,3.01,6.315,3.998,6.315,3.998
	c2.232,4.48,10.333,3.998,10.333,3.998v1.143h1.148c0,0.856-0.574,1.142-0.574,1.142l-0.574,0.571h-4.018l-0.574,0.571v1.714
	c-1.244,0-1.723,0.571-1.723,0.571h-3.444h-13.729l-12.98-0.029h-3.445c0,0-0.478-0.574-1.722-0.574v-1.722l-0.574-0.574h-4.019
	l-0.574-0.574c0,0-0.574-0.287-0.574-1.148h1.148v-1.148c0,0,8.101,0.484,10.334-4.019c0,0,6.142-0.994,6.315-4.019
	c0.173-3.025-0.855-3.187-1.723-2.296c-0.867,0.891-0.27,1.474,0.574,1.722c0.845,0.249-0.561,3.18-4.018,3.445
	c0,0-1.126,0.211-1.148,0c-0.023-0.211,0.134-2.354-1.723-2.871c0,0-0.429-0.954,0-1.148c0.43-0.194,3.968-0.153,1.723-3.444
	c-2.246-3.291-8.988-4.419-13.778-4.419h-0.253c-4.79,0-11.532,1.295-13.778,4.569c-2.245,3.274,1.293,3.234,1.723,3.427
	c0.429,0.193,0,1.142,0,1.142c-1.857,0.514-1.7,2.646-1.723,2.856c-0.022,0.21-1.148,0-1.148,0c-3.457-0.264-4.863-3.18-4.018-3.427
	c0.844-0.247,1.441-0.827,0.574-1.713c-0.868-0.887-1.896-0.725-1.723,2.284c0.173,3.01,6.315,3.998,6.315,3.998
	c2.233,4.481,10.334,3.998,10.334,3.998v1.143h1.148c0,0.856-0.574,1.142-0.574,1.142l-0.574,0.571h-4.019l-0.574,0.571v1.714
	c-1.244,0-1.722,0.571-1.722,0.571h-3.445h-6.417v2.942c0,0,2.608,2.191,2.608,4.799h3.703v1.826h0.835v5.32l-1.617-1.617h-7.563
	v1.617v2.712h-48.196v-1.199h-1.252v-5.842h2.191v-1.461l-6.676-3.351l-7.107,3.319v1.493h1.995v5.672h-1.532v1.369h-75.15v-6.728
	h1.02v-1.409h3.263v-3.873h1.683v-2.894h-4.793v-9.272l-2.346-1.799h-7.852c0,0-3.059-1.213-3.059-3.56v-3.834h0.867v-2.425h4.487
	v-3.521c0,0-0.184-0.52,1.478-1.8v-1.369c0,0-4.413-10.327-14.786-10.327v-2.387c0,0,0.51-0.9,1.173-0.9s2.243-1.76,0-3.481
	c-2.244-1.721-1.173-0.9-1.173-0.9l0.016-57.975l-1.087,57.858c0,0,0-0.704-2.243,1.017c-2.243,1.721-0.663,3.481,0,3.481
	s1.173,0.9,1.173,0.9v2.387c-10.374,0-14.787,10.327-14.787,10.327v1.369c1.663,1.28,1.479,1.8,1.479,1.8v3.521h4.487v2.425h0.867
	v3.834c0,2.347-3.06,3.56-3.06,3.56h-7.852l-2.345,1.799v9.272h-4.793v2.894h1.683v3.873h3.263v1.409h1.02v6.728v29.929
	l-1.358,1.358v4.682h-24.78v2.819h4.832v4.161h2.483v4.093h7.718v3.624l1.51,1.51v2.316h3.859v1.409l2.517,2.517v11.576h-2.45v1.276
	l1.711,1.711v4.127h1.51v1.611h-2.751v1.813l1.644,1.644h1.711v2.45h-0.939v1.745l0.537,0.537v39.097l-1.365,1.365v1.793
	l-3.513-1.137l-8.086,3.538v1.011h1.516v5.813l-19.206,2.273l-8.339-4.801l-4.801-2.559H26.895l1.011,1.422H16.408l1.453,1.453
	v1.832h3.854v8.718v1.769H0.614l1.643,1.644v1.263h3.411v3.159l2.527,1.517v1.01h5.939l0.379,2.402l2.022,2.02v1.896h1.895v1.137
	h3.159v14.91H18.43v1.769h1.895v5.181l1.39,3.285v110.18h-3.917v2.905h0.885v2.78h2.779v7.707c0,0-1.734,3.668-3.668,3.668
	s-1.643,1.645-1.643,1.645l-2.895,2.893l-2.034,2.035h-2.09v28.736h588.107"/>
</svg>
