<?xml version="1.0" encoding="utf-8"?>
<!-- Generator: Adobe Illustrator 16.0.0, SVG Export Plug-In . SVG Version: 6.00 Build 0)  -->
<!DOCTYPE svg PUBLIC "-//W3C//DTD SVG 1.1//EN" "http://www.w3.org/Graphics/SVG/1.1/DTD/svg11.dtd">
<svg version="1.1" id="Layer_1" xmlns="http://www.w3.org/2000/svg" xmlns:xlink="http://www.w3.org/1999/xlink" x="0px" y="0px"
	 width="280px" height="60px" viewBox="0 0 280 60" enable-background="new 0 0 280 60" xml:space="preserve">
<path fill="#FFFFFF" d="M29.847,15.713V38.74c0,1.613-0.377,2.258-1.991,2.959c-2.044,0.807-5.004,1.721-9.738,1.721
	c-7.263,0-10.437-3.874-10.437-10.383V15.713c0-0.43,0.161-0.592,0.646-0.592h1.022c0.484,0,0.645,0.162,0.645,0.592v17.216
	c0,5.488,2.529,8.394,8.339,8.394c3.605,0,6.295-0.699,8.071-1.399c1.022-0.483,1.129-1.022,1.129-1.829V15.713
	c0-0.43,0.162-0.592,0.646-0.592h1.076C29.687,15.121,29.847,15.283,29.847,15.713"/>
<path fill="#FFFFFF" d="M57.607,15.767l-9.737,12.75l10.383,13.504c0.269,0.43,0.162,0.646-0.431,0.646h-1.129
	c-0.646,0-0.754-0.108-1.076-0.538l-9.254-11.997l-9.2,11.997c-0.269,0.484-0.484,0.538-1.076,0.538h-1.075
	c-0.647,0-0.7-0.216-0.431-0.646l10.383-13.558l-9.899-12.697c-0.215-0.377-0.162-0.646,0.484-0.646h1.076
	c0.645,0,0.807,0.054,1.076,0.484l8.716,11.245l8.662-11.245c0.322-0.43,0.43-0.484,1.076-0.484h1.076
	C57.769,15.121,57.931,15.336,57.607,15.767"/>
<path fill="#FFFFFF" d="M97.142,14.313c4.574,0,8.178,1.399,9.523,1.937V3.5c0-0.484,0.162-0.645,0.646-0.645h1.022
	c0.484,0,0.645,0.161,0.645,0.645V38.9c0,1.775-0.43,2.26-2.151,2.959c-1.992,0.807-4.843,1.561-8.878,1.561
	c-7.639,0-11.136-3.766-11.136-10.707v-7.854C86.813,18.242,90.04,14.313,97.142,14.313 M97.465,16.465
	c-5.81,0-8.393,3.013-8.393,8.447v7.748c0,5.703,2.905,8.662,9.038,8.662c3.121,0,5.65-0.646,7.264-1.238
	c1.183-0.539,1.291-0.699,1.291-1.83V18.511C105.428,17.918,102.038,16.465,97.465,16.465"/>
<path fill="#FFFFFF" d="M126.066,14.314c7.102,0,11.567,3.604,11.567,9.468v10.223c0,5.864-4.465,9.415-11.567,9.415
	c-6.994,0-11.513-3.551-11.513-9.415V23.782C114.553,17.918,119.072,14.314,126.066,14.314 M126.066,16.412
	c-5.488,0-9.199,2.798-9.199,7.317v10.276c0,4.519,3.711,7.317,9.199,7.317c5.596,0,9.253-2.799,9.253-7.317V23.729
	C135.319,19.21,131.662,16.412,126.066,16.412"/>
<path fill="#FFFFFF" d="M148.158,9.256v5.864h8.554c0.484,0,0.646,0.162,0.646,0.592v0.915c0,0.43-0.161,0.592-0.646,0.592h-8.554
	V32.82c0,6.941,1.99,8.395,8.446,8.395c0.484,0,0.646,0.16,0.646,0.645v0.915c0,0.483-0.161,0.646-0.646,0.646
	c-7.963,0.054-10.76-2.205-10.76-10.545V17.219h-5.812c-0.43,0-0.591-0.162-0.591-0.592v-0.915c0-0.43,0.161-0.592,0.591-0.592
	h5.812V9.256c0-0.43,0.161-0.592,0.645-0.592h1.023C147.997,8.665,148.158,8.827,148.158,9.256"/>
<path fill="#FFFFFF" d="M204.515,14.313c3.873,0,6.886,0.754,8.823,1.56c1.722,0.754,2.098,1.238,2.098,2.959v25.826
	c0,7.047-3.12,11.621-11.137,11.621c-5.703,0-8.662-2.584-10.438-6.08c-0.269-0.484-0.215-0.808,0.27-1.022l0.753-0.377
	c0.484-0.269,0.699-0.161,0.969,0.269c1.506,3.014,3.765,5.111,8.392,5.111c6.35,0,8.878-3.605,8.878-9.415v-3.657
	c-1.398,0.59-5.004,1.936-9.577,1.936c-7.154,0-10.329-3.873-10.329-10.33v-7.531C193.216,18.134,196.821,14.313,204.515,14.313
	 M204.676,16.465c-6.241,0-9.146,2.959-9.146,8.771v7.424c0,5.272,2.582,8.285,8.285,8.285c4.627,0,8.016-1.453,9.308-1.99V19.479
	c0-1.076-0.162-1.291-1.345-1.775C210.218,17.112,207.741,16.465,204.676,16.465"/>
<path fill="#FFFFFF" d="M232.523,14.314c7.102,0,11.566,3.604,11.566,9.468v10.223c0,5.864-4.465,9.415-11.566,9.415
	c-6.994,0-11.513-3.551-11.513-9.415V23.782C221.011,17.918,225.529,14.314,232.523,14.314 M232.523,16.412
	c-5.487,0-9.199,2.798-9.199,7.317v10.276c0,4.519,3.712,7.317,9.199,7.317c5.596,0,9.253-2.799,9.253-7.317V23.729
	C241.776,19.21,238.119,16.412,232.523,16.412"/>
<path fill="#FFFFFF" d="M272.229,15.82l-11.245,26.416c-0.215,0.484-0.376,0.645-0.914,0.645h-0.646
	c-0.484,0-0.699-0.16-0.915-0.645l-11.19-26.416c-0.269-0.538-0.106-0.699,0.485-0.699h0.806c0.754,0,0.861,0.107,1.077,0.645
	l8.554,20.123c0.591,1.56,1.129,3.227,1.506,4.142h0.108c0.376-0.86,0.807-2.528,1.452-4.089l8.501-20.229
	c0.161-0.484,0.323-0.591,1.075-0.591h0.808C272.281,15.121,272.443,15.228,272.229,15.82"/>
<polygon fill="#FFFFFF" points="78.027,8.622 82.524,8.622 69.304,28.172 64.808,28.172 "/>
<polygon fill="#FFFFFF" points="69.305,28.172 64.808,28.172 78.028,47.722 82.524,47.722 "/>
<polygon fill="#FFFFFF" points="170.01,8.622 165.529,8.622 178.699,28.171 183.179,28.171 "/>
<polygon fill="#FFFFFF" points="178.699,28.171 183.179,28.171 170.01,47.721 165.53,47.721 "/>
</svg>
