<?xml version="1.0" encoding="utf-8"?>
<!-- Generator: Adobe Illustrator 16.0.0, SVG Export Plug-In . SVG Version: 6.00 Build 0)  -->
<!DOCTYPE svg PUBLIC "-//W3C//DTD SVG 1.1//EN" "http://www.w3.org/Graphics/SVG/1.1/DTD/svg11.dtd">
<svg version="1.1" id="Layer_1" xmlns="http://www.w3.org/2000/svg" xmlns:xlink="http://www.w3.org/1999/xlink" x="0px" y="0px"
	 width="220px" height="50px" viewBox="0 0 220 50" enable-background="new 0 0 220 50" xml:space="preserve">
<g>
	<path fill-rule="evenodd" clip-rule="evenodd" fill="#7CC042" d="M192.039,19.318c-2.752,0.212-4.996,2.475-4.996,5.682
		c0,3.24,2.244,5.474,4.996,5.682v3.88c-5.363-0.194-9.59-4.078-9.59-9.562c0-5.449,4.227-9.366,9.59-9.563V19.318z M180.212,20.377
		l-5.241,13.765h-5.419l-5.238-13.765c-0.182-0.467-0.503-0.646-1.005-0.646h-0.396v-3.872h2.621c1.507,0,2.227,0.465,2.69,1.721
		l3.446,9.605c0.396,1.076,0.683,2.617,0.683,2.617h0.07c0,0,0.287-1.541,0.647-2.617l3.443-9.605
		c0.469-1.256,1.223-1.721,2.693-1.721h2.441v3.872h-0.433C180.714,19.731,180.391,19.91,180.212,20.377 M152.23,27.437V19.48
		h-2.367v-3.621h2.476v-4.982h4.45v4.982h4.164v3.621h-4.164v7.384c0,3.011,2.369,3.44,3.625,3.44c0.503,0,0.824-0.072,0.824-0.072
		v3.979c0,0-0.572,0.108-1.398,0.108C157.292,34.32,152.23,33.566,152.23,27.437 M140.892,34.571c-5.026,0-7.61-3.263-7.61-3.263
		l2.154-2.976c0,0,2.333,2.689,5.456,2.689c1.398,0,2.476-0.575,2.476-1.792c0-2.582-9.653-2.547-9.653-8.459
		c0-3.658,3.302-5.341,7.105-5.341c2.478,0,6.424,0.825,6.424,3.799v1.9h-4.019v-0.897c0-0.86-1.292-1.291-2.297-1.291
		c-1.616,0-2.729,0.575-2.729,1.649c0,2.867,9.726,2.293,9.726,8.389C147.924,32.42,144.874,34.571,140.892,34.571 M118.209,25.789
		c0.359,3.225,2.727,4.911,5.491,4.911c2.942,0,5.133-2.044,5.133-2.044l1.9,3.154c0,0-2.798,2.762-7.355,2.762
		c-6.067,0-9.834-4.374-9.834-9.571c0-5.627,3.805-9.57,9.295-9.57c5.24,0,8.112,3.835,8.112,8.674c0,0.537-0.108,1.685-0.108,1.685
		H118.209z M122.839,18.941c-2.333,0-3.983,1.398-4.487,3.693h7.934C126.213,20.447,124.706,18.941,122.839,18.941 M93.507,31.703
		v-8.389c0-2.222-0.61-3.727-2.907-3.727c-2.405,0-4.271,1.577-4.953,3.799c-0.215,0.717-0.286,1.506-0.286,2.367v8.388h-4.559
		V13.35c0-0.539-0.287-0.789-0.79-0.789h-1.436V8.69h4.343c1.686,0,2.44,0.752,2.44,2.401v6.417c0,0.897-0.072,1.542-0.072,1.542
		h0.072c0.861-1.757,3.121-3.621,6.28-3.621c4.091,0,6.388,2.114,6.388,6.952v7.135c0,0.502,0.288,0.788,0.789,0.788h1.436v3.837
		h-4.342C94.225,34.142,93.507,33.423,93.507,31.703 M69.676,34.571c-5.024,0-7.608-3.263-7.608-3.263l2.153-2.976
		c0,0,2.334,2.689,5.456,2.689c1.401,0,2.476-0.575,2.476-1.792c0-2.582-9.654-2.547-9.654-8.459c0-3.658,3.303-5.341,7.106-5.341
		c2.477,0,6.425,0.825,6.425,3.799v1.9h-4.021v-0.897c0-0.86-1.292-1.291-2.297-1.291c-1.615,0-2.728,0.575-2.728,1.649
		c0,2.867,9.727,2.293,9.727,8.389C76.711,32.42,73.66,34.571,69.676,34.571 M51.589,34.571c-3.804,0-5.456-2.582-5.456-2.582
		h-0.072c0,0,0.072,0.503,0.072,1.219v0.934h-4.305V13.35c0-0.539-0.288-0.789-0.789-0.789h-1.437V8.69h4.343
		c1.686,0,2.44,0.752,2.44,2.437v5.306c0,0.896-0.071,1.541-0.071,1.541h0.071c0,0,1.614-2.544,5.491-2.544
		c4.953,0,8.112,3.905,8.112,9.57C59.988,30.808,56.435,34.571,51.589,34.571 M50.836,19.335c-2.369,0-4.594,1.721-4.594,5.772
		c0,2.832,1.507,5.629,4.558,5.629c2.476,0,4.593-2.045,4.593-5.665C55.393,21.596,53.527,19.335,50.836,19.335 M28.924,34.537v-3.9
		c2.589-0.389,4.614-2.559,4.614-5.637c0-3.047-2.025-5.243-4.614-5.637v-3.901c5.197,0.377,9.208,4.229,9.208,9.538
		C38.132,30.343,34.121,34.164,28.924,34.537"/>
	<path fill-rule="evenodd" clip-rule="evenodd" fill="#7CC042" d="M102.953,27.437v-7.958h-2.369v-3.62h2.476v-4.982h4.451v4.982
		h4.164v3.62h-4.164v7.385c0,3.01,2.368,3.44,3.625,3.44c0.5,0,0.824-0.072,0.824-0.072v3.979c0,0-0.573,0.108-1.399,0.108
		C108.013,34.32,102.953,33.568,102.953,27.437"/>
	<path fill-rule="evenodd" clip-rule="evenodd" fill="#008DB9" d="M26.075,15.296c-4.786,0.264-8.721,4.158-8.721,9.704
		c0,5.606,3.936,9.444,8.721,9.703v6.606C16.833,41.068,9.519,34.421,9.519,25c0-9.36,7.314-16.065,16.556-16.31V15.296z"/>
	<path fill-rule="evenodd" clip-rule="evenodd" fill="#008DB9" d="M194.494,15.56c4.623,0.259,8.422,4.073,8.422,9.506
		c0,5.491-3.799,9.25-8.422,9.506v6.47c8.924-0.235,15.986-6.748,15.986-15.976c0-9.168-7.063-15.737-15.986-15.976V15.56z"/>
</g>
</svg>
