<?xml version="1.0" encoding="utf-8"?>
<!-- Generator: Adobe Illustrator 16.0.0, SVG Export Plug-In . SVG Version: 6.00 Build 0)  -->
<!DOCTYPE svg PUBLIC "-//W3C//DTD SVG 1.1//EN" "http://www.w3.org/Graphics/SVG/1.1/DTD/svg11.dtd">
<svg version="1.1" id="Layer_1" xmlns="http://www.w3.org/2000/svg" xmlns:xlink="http://www.w3.org/1999/xlink" x="0px" y="0px"
	 width="188.841px" height="11.42px" viewBox="0 0 188.841 11.42" enable-background="new 0 0 188.841 11.42" xml:space="preserve">
<polygon fill="#3FA9F5" points="11.802,8.264 11.802,10.981 23.605,2.999 23.605,0.283 "/>
<polygon fill="#8D53A0" points="0.034,8.25 0.034,10.952 11.819,3.013 11.82,0.313 "/>
<polygon fill="#8D53A0" points="11.82,3.013 11.82,0.312 23.604,8.25 23.604,10.952 "/>
<polygon fill="#3FA9F5" points="0,2.999 0,0.284 11.802,8.264 11.802,10.981 "/>
<polygon fill="#3FA9F5" points="35.407,8.264 35.407,10.981 47.21,2.999 47.21,0.283 "/>
<polygon fill="#8D53A0" points="23.64,8.25 23.64,10.952 35.424,3.013 35.425,0.313 "/>
<polygon fill="#8D53A0" points="35.425,3.013 35.425,0.312 47.21,8.25 47.21,10.952 "/>
<polygon fill="#3FA9F5" points="23.605,2.999 23.605,0.284 35.407,8.264 35.407,10.981 "/>
<polygon fill="#3FA9F5" points="59.013,8.264 59.013,10.981 70.815,2.999 70.815,0.283 "/>
<polygon fill="#8D53A0" points="47.245,8.25 47.245,10.952 59.03,3.013 59.031,0.313 "/>
<polygon fill="#8D53A0" points="59.03,3.013 59.03,0.312 70.815,8.25 70.815,10.952 "/>
<polygon fill="#3FA9F5" points="47.21,2.999 47.21,0.284 59.012,8.264 59.012,10.981 "/>
<polygon fill="#3FA9F5" points="82.618,8.264 82.618,10.981 94.42,2.999 94.42,0.283 "/>
<polygon fill="#8D53A0" points="70.85,8.25 70.85,10.952 82.634,3.013 82.635,0.313 "/>
<polygon fill="#8D53A0" points="82.635,3.013 82.635,0.312 94.42,8.25 94.42,10.952 "/>
<polygon fill="#3FA9F5" points="70.815,2.999 70.815,0.284 82.617,8.264 82.617,10.981 "/>
<polygon fill="#3FA9F5" points="106.223,8.264 106.223,10.981 118.026,2.999 118.026,0.283 "/>
<polygon fill="#8D53A0" points="94.455,8.25 94.455,10.952 106.24,3.013 106.241,0.313 "/>
<polygon fill="#8D53A0" points="106.241,3.013 106.241,0.312 118.025,8.25 118.025,10.952 "/>
<polygon fill="#3FA9F5" points="94.42,2.999 94.42,0.284 106.222,8.264 106.222,10.981 "/>
<polygon fill="#3FA9F5" points="129.828,8.264 129.828,10.981 141.631,2.999 141.631,0.283 "/>
<polygon fill="#8D53A0" points="118.06,8.25 118.06,10.952 129.845,3.013 129.846,0.313 "/>
<polygon fill="#8D53A0" points="129.845,3.013 129.845,0.312 141.63,8.25 141.63,10.952 "/>
<polygon fill="#3FA9F5" points="118.026,2.999 118.026,0.284 129.828,8.264 129.828,10.981 "/>
<polygon fill="#3FA9F5" points="153.433,8.264 153.433,10.981 165.236,2.999 165.236,0.283 "/>
<polygon fill="#8D53A0" points="141.665,8.25 141.665,10.952 153.45,3.013 153.451,0.313 "/>
<polygon fill="#8D53A0" points="153.451,3.013 153.451,0.312 165.236,8.25 165.236,10.952 "/>
<polygon fill="#3FA9F5" points="141.63,2.999 141.63,0.284 153.432,8.264 153.432,10.981 "/>
<polygon fill="#3FA9F5" points="177.038,8.264 177.038,10.981 188.841,2.999 188.841,0.283 "/>
<polygon fill="#8D53A0" points="165.27,8.25 165.27,10.952 177.055,3.013 177.056,0.313 "/>
<polygon fill="#8D53A0" points="177.055,3.013 177.055,0.312 188.84,8.25 188.84,10.952 "/>
<polygon fill="#3FA9F5" points="165.236,2.999 165.236,0.284 177.038,8.264 177.038,10.981 "/>
</svg>
